<mxfile host="app.diagrams.net" modified="2020-12-01T07:56:44.894Z" agent="5.0 (Windows)" etag="grEg-euRB7iwZKcYtVzN" version="13.10.4" type="github">
  <diagram id="AbkXv3965ZGPJ2496U7E" name="Page-1">
    <mxGraphModel dx="1410" dy="745" grid="1" gridSize="10" guides="1" tooltips="1" connect="1" arrows="1" fold="1" page="1" pageScale="1" pageWidth="827" pageHeight="1169" math="0" shadow="0">
      <root>
        <mxCell id="0" />
        <mxCell id="1" parent="0" />
        <mxCell id="EkX6vTb8Qe1zihZz9snh-4" value="" style="edgeStyle=orthogonalEdgeStyle;rounded=0;orthogonalLoop=1;jettySize=auto;html=1;" edge="1" parent="1" source="EkX6vTb8Qe1zihZz9snh-1" target="EkX6vTb8Qe1zihZz9snh-2">
          <mxGeometry relative="1" as="geometry" />
        </mxCell>
        <mxCell id="EkX6vTb8Qe1zihZz9snh-1" value="" style="rounded=0;whiteSpace=wrap;html=1;direction=west;" vertex="1" parent="1">
          <mxGeometry x="90" y="120" width="360" height="430" as="geometry" />
        </mxCell>
        <mxCell id="EkX6vTb8Qe1zihZz9snh-2" value="" style="whiteSpace=wrap;html=1;aspect=fixed;" vertex="1" parent="1">
          <mxGeometry x="150" y="130" width="80" height="80" as="geometry" />
        </mxCell>
        <mxCell id="EkX6vTb8Qe1zihZz9snh-3" value="" style="ellipse;whiteSpace=wrap;html=1;aspect=fixed;" vertex="1" parent="1">
          <mxGeometry x="220" y="300" width="120" height="120" as="geometry" />
        </mxCell>
      </root>
    </mxGraphModel>
  </diagram>
</mxfile>
